<svg height='100px' width='100px'  fill="#000000" xmlns="http://www.w3.org/2000/svg" xmlns:xlink="http://www.w3.org/1999/xlink" viewBox="0 0 100 100" version="1.1" x="0px" y="0px"><title>12</title><desc>Created with Sketch.</desc><g stroke="none" stroke-width="1" fill="none" fill-rule="evenodd"><g fill="#000000"><path d="M84.4255805,42.7550097 C84.3691204,43.0218713 84.3691204,43.2978947 84.4255805,43.5645614 L84.4255805,46.8939961 L15.5741469,46.8939961 L15.5741469,43.1608577 L15.5741469,43.159883 L15.5741469,4.09360624 L65.0801823,4.09360624 L65.0801823,21.5136842 C65.0801823,22.5902924 65.9518106,23.4630019 67.027085,23.4630019 L84.4255805,23.4630019 L84.4255805,42.7550097 Z M68.3198283,70.1043275 L68.3198283,59.6754776 C68.3198283,59.142729 68.4625363,58.7333723 68.7483416,58.4474074 C69.0335628,58.1618324 69.4424124,58.0185575 69.9746956,58.0185575 L74.9587664,58.0185575 C76.4773504,58.0185575 77.6583416,58.4054971 78.5023239,59.1784016 C79.3457221,59.9516959 79.7678106,61.0273294 79.7678106,62.4045224 C79.7678106,63.7690448 79.3424124,64.8411696 78.4923947,65.6208967 C77.6421823,66.4006238 76.4643062,66.7904873 74.9587664,66.7904873 L71.9021292,66.7904873 L71.9021292,70.1043275 C71.9021292,70.6501365 71.7397575,71.0823002 71.4154035,71.4006238 C71.0908549,71.7191423 70.649492,71.8782066 70.0915097,71.8782066 C69.5465717,71.8782066 69.1147487,71.7191423 68.7970142,71.4006238 C68.4786956,71.0823002 68.3198283,70.6501365 68.3198283,70.1043275 L68.3198283,70.1043275 Z M65.8476513,65.8645614 C66.2757752,66.4431189 66.4899345,67.154425 66.4899345,67.9990643 C66.4899345,68.7530604 66.2919345,69.4123197 65.8963239,69.9776218 C65.5001292,70.542924 64.9355274,70.9815205 64.2023239,71.2934113 C63.4689257,71.6053021 62.6089788,71.7612476 61.6226779,71.7612476 L56.4439168,71.7612476 C55.9116336,71.7612476 55.5027841,71.6183626 55.2175628,71.3323977 C54.9317575,71.0468226 54.7890496,70.6374659 54.7890496,70.1043275 L54.7890496,59.6754776 C54.7890496,59.142729 54.9317575,58.7333723 55.2175628,58.4474074 C55.5027841,58.1618324 55.9116336,58.0185575 56.4439168,58.0185575 L61.4279876,58.0185575 C62.8686956,58.0185575 64.0140584,58.3401949 64.8642708,58.9834698 C65.7142885,59.6267446 66.1396867,60.494191 66.1396867,61.585809 C66.1396867,62.2875634 65.9512265,62.9084211 65.5748903,63.4474074 C65.1983593,63.9867836 64.6726956,64.3801559 63.9980938,64.6267446 C64.802554,64.8737232 65.4191381,65.2863938 65.8476513,65.8645614 L65.8476513,65.8645614 Z M51.1682,63.3986745 C52.2974035,63.3986745 52.8620053,63.8602729 52.8620053,64.7826901 C52.8620053,65.2247953 52.7191027,65.5624172 52.4336867,65.7963353 C52.1478814,66.0302534 51.7259876,66.1472125 51.1682,66.1472125 L46.6513858,66.1472125 L46.6513858,68.9932164 L51.5575805,68.9932164 C52.6867841,68.9932164 53.2513858,69.4610526 53.2513858,70.3967251 C53.2513858,70.8386355 53.1084832,71.1764522 52.8230673,71.4103704 C52.5372619,71.6442885 52.1153681,71.7612476 51.5575805,71.7612476 L44.8212973,71.7612476 C44.2888195,71.7612476 43.8799699,71.6183626 43.5947487,71.3323977 C43.3091381,71.0468226 43.1664301,70.6374659 43.1664301,70.1043275 L43.1664301,59.6754776 C43.1664301,59.142729 43.3091381,58.7333723 43.5947487,58.4474074 C43.8799699,58.1618324 44.2888195,58.0185575 44.8212973,58.0185575 L51.5575805,58.0185575 C52.1153681,58.0185575 52.5372619,58.1355166 52.8230673,58.3694347 C53.1084832,58.6033528 53.2513858,58.9415595 53.2513858,59.3830799 C53.2513858,60.3187524 52.6867841,60.7865887 51.5575805,60.7865887 L46.6513858,60.7865887 L46.6513858,63.3986745 L51.1682,63.3986745 Z M20.6798991,59.4415595 C20.6798991,58.9610526 20.8518106,58.5809357 21.1958283,58.3012086 C21.5396513,58.0218713 21.9387664,57.8821053 22.3931735,57.8821053 C22.7564655,57.8821053 23.0907487,57.9764522 23.3958283,58.1647563 C23.7007133,58.3534503 23.9181823,58.6359064 24.0480407,59.0127096 L26.7152973,66.6930214 L29.5383062,59.0127096 C29.6679699,58.6491618 29.8790142,58.3694347 30.1710496,58.1745029 C30.463085,57.9795712 30.7843239,57.8821053 31.1347664,57.8821053 C31.4852088,57.8821053 31.8031381,57.9795712 32.0887487,58.1745029 C32.3741646,58.3694347 32.5818991,58.6553996 32.7117575,59.0322027 L35.3595451,66.86846 L38.1436159,59.0127096 C38.2732796,58.6491618 38.4843239,58.3694347 38.7763593,58.1745029 C39.0683947,57.9795712 39.3896336,57.8821053 39.7400761,57.8821053 C40.1683947,57.8821053 40.5414212,58.0185575 40.8595451,58.291462 C41.1774743,58.5643665 41.3365363,58.9347368 41.3365363,59.4025731 C41.3365363,59.6105653 41.284554,59.8704094 41.1807841,60.1823002 L37.2675097,70.7865887 C37.1376513,71.1505263 36.9007133,71.4333723 36.5568903,71.6345419 C36.2128726,71.8359064 35.8332265,71.9366862 35.4179522,71.9366862 C35.0024832,71.9366862 34.6261469,71.8359064 34.2887487,71.6345419 C33.9511558,71.4333723 33.7175274,71.1505263 33.5878637,70.7865887 L31.0568903,63.5546199 L28.4091027,70.7865887 C28.2662,71.1505263 28.0261469,71.4333723 27.6887487,71.6345419 C27.3511558,71.8359064 26.9812442,71.9366862 26.5790142,71.9366862 C26.1635451,71.9366862 25.7872088,71.8359064 25.4498106,71.6345419 C25.1122177,71.4333723 24.8785894,71.1505263 24.7489257,70.7865887 L20.8161823,60.1823002 C20.7252619,59.9224561 20.6798991,59.6754776 20.6798991,59.4415595 L20.6798991,59.4415595 Z M15.5741469,96.0501365 L84.4255805,96.0501365 L84.4255805,80.6676803 L15.5741469,80.6676803 L15.5741469,96.0501365 Z M93.1689257,47.2474074 L88.3193858,42.3955556 L88.3193858,21.5138791 C88.3193858,21.4916569 88.3168549,21.4700195 88.3160761,21.4479922 C88.3152973,21.4259649 88.3143239,21.4043275 88.3127664,21.3824951 C88.3071204,21.2992593 88.2981646,21.2164133 88.2822,21.1353216 L88.2818106,21.1329825 C88.2654566,21.0505263 88.2418991,20.9700195 88.2150319,20.8906823 C88.2082177,20.8702144 88.2010142,20.8501365 88.1934212,20.8298635 C88.1653858,20.7555945 88.1342354,20.6823002 88.0974389,20.6117349 C88.0951027,20.6070565 88.0933504,20.6021832 88.0908195,20.5976998 C88.051492,20.5236257 88.0057398,20.4530604 87.9568726,20.3844444 C87.944023,20.3665107 87.9309788,20.3487719 87.9175451,20.3310331 C87.8663416,20.2643665 87.8124124,20.1994542 87.7524478,20.1390253 C87.7512796,20.1378558 87.7503062,20.1364912 87.7491381,20.1353216 L68.4037398,0.765925926 C68.3422177,0.704327485 68.2758283,0.649161793 68.207492,0.596920078 C68.1903593,0.583664717 68.1730319,0.57079922 68.1555097,0.558323587 C68.0865894,0.50920078 68.0159168,0.463196881 67.9417398,0.423625731 C67.9376513,0.421481481 67.9331735,0.419727096 67.9286956,0.417582846 C67.8578283,0.380350877 67.7842354,0.348966862 67.7094743,0.320896686 C67.6896159,0.313489279 67.6699522,0.306276803 67.6497044,0.299454191 C67.5702708,0.272553606 67.4894743,0.248966862 67.406731,0.232592593 C67.406731,0.232592593 67.4065363,0.232397661 67.4063416,0.232397661 C67.3245717,0.216218324 67.2412442,0.20705653 67.1573327,0.201403509 C67.1359168,0.200038986 67.1146956,0.199064327 67.0932796,0.1982846 C67.071085,0.197504873 67.0492796,0.19497076 67.027085,0.19497076 L13.6272442,0.19497076 C12.5521646,0.19497076 11.6803416,1.06768031 11.6803416,2.1442885 L11.6803416,42.3520858 L6.57069558,47.4643665 C6.57069558,47.4645614 6.57050088,47.4645614 6.57050088,47.4647563 C6.52513805,47.5101754 6.48230619,47.5579337 6.44142124,47.6074464 C6.42292566,47.6300585 6.40676637,47.6540351 6.38924425,47.6774269 C6.36880177,47.7049123 6.34738584,47.7318129 6.32830619,47.7604678 C6.30942124,47.7887329 6.29306726,47.8179727 6.27573982,47.8468226 C6.26055398,47.8725536 6.24439469,47.8975049 6.2301823,47.9240156 C6.21460708,47.9534503 6.20117345,47.9838596 6.18715575,48.0138791 C6.1741115,48.0415595 6.1602885,48.06846 6.14841239,48.0969201 C6.13634159,48.1259649 6.12680177,48.1557895 6.11609381,48.1852242 C6.10519115,48.2158285 6.09350973,48.245848 6.0841646,48.277037 C6.07501416,48.3066667 6.06858938,48.3368811 6.06099646,48.3669006 C6.05320885,48.3984795 6.0442531,48.4296686 6.03782832,48.4618324 C6.03081947,48.497115 6.02653628,48.5327875 6.02166903,48.56846 C6.01777522,48.5957505 6.01251858,48.6226511 6.00979292,48.6503314 C6.00336814,48.7144639 6.00005841,48.7787914 6.00005841,48.8431189 L6.00005841,48.8433138 L6.00005841,78.7183626 C6.00005841,79.7949708 6.87168673,80.6676803 7.94696106,80.6676803 L11.6803416,80.6676803 L11.6803416,97.9994542 C11.6803416,99.0760624 12.5521646,99.9487719 13.6272442,99.9487719 L86.3724832,99.9487719 C87.4475628,99.9487719 88.3193858,99.0760624 88.3193858,97.9994542 L88.3193858,80.6676803 L92.0529611,80.6676803 C93.1280407,80.6676803 93.9998637,79.7949708 93.9998637,78.7183626 L93.9998637,48.8433138 C93.9998637,48.1826901 93.6708372,47.5998441 93.1689257,47.2474074 L93.1689257,47.2474074 Z M62.7032478,66.4689084 C62.3981681,66.2416179 61.8886637,66.1277778 61.1749292,66.1277778 L58.2740442,66.1277778 L58.2740442,69.0517544 L61.1749292,69.0517544 C61.8886637,69.0517544 62.3981681,68.9381092 62.7032478,68.7106238 C63.0081327,68.4833333 63.1607699,68.1096491 63.1607699,67.5897661 C63.1607699,67.070078 63.0081327,66.6963938 62.7032478,66.4689084 M62.3041717,63.1063353 C62.6156761,62.898538 62.7714283,62.567154 62.7714283,62.1121832 C62.7714283,61.6314815 62.6156761,61.2806043 62.3041717,61.0595517 C61.9926673,60.838694 61.4993221,60.7281676 60.8245257,60.7281676 L58.2740832,60.7281676 L58.2740832,63.4182261 L60.8245257,63.4182261 C61.4993221,63.4182261 61.9926673,63.3143275 62.3041717,63.1063353 M75.9420106,63.6911306 C76.2599398,63.4182261 76.4190018,62.9960039 76.4190018,62.4240741 C76.4190018,61.2934698 75.7699044,60.7281676 74.4720991,60.7281676 L71.9021876,60.7281676 L71.9021876,64.1004873 L74.4720991,64.1004873 C75.134046,64.1004873 75.6238867,63.9640351 75.9420106,63.6911306"></path></g></g></svg>